<?xml version="1.0" encoding="iso-8859-1"?>
<!-- Uploaded to: SVG Repo, www.svgrepo.com, Generator: SVG Repo Mixer Tools -->
<!DOCTYPE svg PUBLIC "-//W3C//DTD SVG 1.1//EN" "http://www.w3.org/Graphics/SVG/1.1/DTD/svg11.dtd">
<svg fill="#000000" version="1.1" id="Capa_1" xmlns="http://www.w3.org/2000/svg" xmlns:xlink="http://www.w3.org/1999/xlink" 
	 width="800px" height="800px" viewBox="0 0 976.893 976.893"
	 xml:space="preserve">
<g>
	<g>
		<path d="M966.893,910.859h-29.406V117.907c0-5.523-4.477-10-10-10H907.4c-5.521,0-10-4.477-10-10V29.865c0-5.523-4.477-10-10-10
			H729.852c-5.523,0-10,4.477-10,10v68.042c0,5.523-4.477,10-10,10h-22.086c-5.523,0-10,4.477-10,10v792.952H652.82V194.257
			c0-7.655-8.25-12.471-14.916-8.708l-418.702,236.33c-3.142,1.772-5.085,5.101-5.085,8.709v167.71c0,3.605-1.942,6.934-5.082,8.707
			L41.381,701.701c-3.14,1.773-5.082,5.102-5.082,8.707v200.451H10c-5.523,0-10,4.477-10,10v26.168c0,5.523,4.477,10,10,10h956.893
			c5.523,0,10-4.477,10-10v-26.168C976.893,915.336,972.416,910.859,966.893,910.859z M177.612,867.781c0,5.523-4.477,10-10,10
			h-24.021c-5.523,0-10-4.477-10-10v-24.02c0-5.523,4.477-10,10-10h24.021c5.523,0,10,4.477,10,10V867.781z M177.612,766.533
			c0,5.523-4.477,10-10,10h-24.021c-5.523,0-10-4.477-10-10v-24.02c0-5.523,4.477-10,10-10h24.021c5.523,0,10,4.477,10,10V766.533z
			 M323.641,867.781c0,5.523-4.477,10-10,10H289.62c-5.523,0-10-4.477-10-10v-24.02c0-5.523,4.477-10,10-10h24.021
			c5.523,0,10,4.477,10,10V867.781z M323.641,766.533c0,5.523-4.477,10-10,10H289.62c-5.523,0-10-4.477-10-10v-24.02
			c0-5.523,4.477-10,10-10h24.021c5.523,0,10,4.477,10,10V766.533z M323.641,656.482c0,5.523-4.477,10-10,10H289.62
			c-5.523,0-10-4.477-10-10v-24.021c0-5.523,4.477-10,10-10h24.021c5.523,0,10,4.477,10,10V656.482z M323.641,555.234
			c0,5.523-4.477,10-10,10H289.62c-5.523,0-10-4.477-10-10v-24.021c0-5.523,4.477-10,10-10h24.021c5.523,0,10,4.477,10,10V555.234z
			 M459.501,867.781c0,5.523-4.478,10-10,10H425.48c-5.522,0-10-4.477-10-10v-24.02c0-5.523,4.478-10,10-10h24.021
			c5.522,0,10,4.477,10,10V867.781z M459.501,766.533c0,5.523-4.478,10-10,10H425.48c-5.522,0-10-4.477-10-10v-24.02
			c0-5.523,4.478-10,10-10h24.021c5.522,0,10,4.477,10,10V766.533z M459.501,656.482c0,5.523-4.478,10-10,10H425.48
			c-5.522,0-10-4.477-10-10v-24.021c0-5.523,4.478-10,10-10h24.021c5.522,0,10,4.477,10,10V656.482z M459.501,555.234
			c0,5.523-4.478,10-10,10H425.48c-5.522,0-10-4.477-10-10v-24.021c0-5.523,4.478-10,10-10h24.021c5.522,0,10,4.477,10,10V555.234z
			 M459.501,446.649c0,5.523-4.478,10-10,10H425.48c-5.522,0-10-4.477-10-10v-24.021c0-5.523,4.478-10,10-10h24.021
			c5.522,0,10,4.477,10,10V446.649z M590.096,867.781c0,5.523-4.477,10-10,10h-24.021c-5.521,0-10-4.477-10-10v-24.02
			c0-5.523,4.479-10,10-10h24.021c5.523,0,10,4.477,10,10V867.781z M590.096,766.533c0,5.523-4.477,10-10,10h-24.021
			c-5.521,0-10-4.477-10-10v-24.02c0-5.523,4.479-10,10-10h24.021c5.523,0,10,4.477,10,10V766.533z M590.096,656.482
			c0,5.523-4.477,10-10,10h-24.021c-5.521,0-10-4.477-10-10v-24.021c0-5.523,4.479-10,10-10h24.021c5.523,0,10,4.477,10,10V656.482z
			 M590.096,555.234c0,5.523-4.477,10-10,10h-24.021c-5.521,0-10-4.477-10-10v-24.021c0-5.523,4.479-10,10-10h24.021
			c5.523,0,10,4.477,10,10V555.234z M590.096,446.649c0,5.523-4.477,10-10,10h-24.021c-5.521,0-10-4.477-10-10v-24.021
			c0-5.523,4.479-10,10-10h24.021c5.523,0,10,4.477,10,10V446.649z M590.096,338.065c0,5.523-4.477,10-10,10h-24.021
			c-5.521,0-10-4.477-10-10v-24.021c0-5.523,4.479-10,10-10h24.021c5.523,0,10,4.477,10,10V338.065z M848.711,910.859h-82.172
			V809.25c0-5.523,4.477-10,10-10h62.172c5.523,0,10,4.477,10,10V910.859z M848.711,703.926c0,5.523-4.477,10-10,10h-62.172
			c-5.523,0-10-4.477-10-10v-62.172c0-5.523,4.477-10,10-10h62.172c5.523,0,10,4.477,10,10V703.926z M848.711,580.668
			c0,5.523-4.477,10-10,10h-62.172c-5.523,0-10-4.477-10-10v-62.172c0-5.523,4.477-10,10-10h62.172c5.523,0,10,4.477,10,10V580.668z
			 M848.711,457.41c0,5.523-4.477,10-10,10h-62.172c-5.523,0-10-4.477-10-10v-62.172c0-5.522,4.477-10,10-10h62.172
			c5.523,0,10,4.477,10,10V457.41z M848.711,334.151c0,5.523-4.477,10-10,10h-62.172c-5.523,0-10-4.477-10-10v-62.172
			c0-5.523,4.477-10,10-10h62.172c5.523,0,10,4.477,10,10V334.151z"/>
	</g>
</g>
</svg>